# xmcd CD database file
#
# Track frame offsets:
#	150
#	6545
#	30990
#	49007
#	71397
#	75230
#	90150
#	104850
#	122407
#	139087
#	153537
#	172457
#	199455
#	216505
#	239597
#	276185
#	295850
#
# Disc length: 4129 seconds
#
# Revision: 1
# Processed by: cddbd v1.5.2PL0 Copyright (c) Steve Scherf et al.
# Submitted via: CDex 1.51
#
DISCID=fb101f11
DTITLE=Lil'Kim - La Bella Mafia (Japan Version)
DYEAR=2003
DGENRE=R&B
TTITLE0=Intro
TTITLE1=Hold It Now
TTITLE2=Doing It Way Big
TTITLE3=Can't Fuck With Queen Bee
TTITLE4=Hollyhood Skit
TTITLE5=Shake Ya Bum Bum
TTITLE6=This Is Who I Am
TTITLE7=The Jump Off
TTITLE8=This Is A Warning
TTITLE9=(When Kim Say) Can You Hear Me Now?
TTITLE10=Thug Luv
TTITLE11=Magic Stick
TTITLE12=Get In Touch With Us
TTITLE13=Heavenly Father
TTITLE14=Tha Beehive
TTITLE15=Came Back For You
TTITLE16=What's The World
EXTD=YEAR: 2003
EXTT0=
EXTT1=
EXTT2=
EXTT3=
EXTT4=
EXTT5=
EXTT6=
EXTT7=
EXTT8=
EXTT9=
EXTT10=
EXTT11=
EXTT12=
EXTT13=
EXTT14=
EXTT15=
EXTT16=
PLAYORDER=
